<svg width="50" height="50" viewBox="0 0 50 50" fill="none" xmlns="http://www.w3.org/2000/svg">
<path d="M17.4848 28.2008C17.7582 28.2008 17.9937 28.171 18.1913 28.1115C18.3889 28.0519 18.5502 27.9689 18.6754 27.8623C18.8038 27.7526 18.8977 27.6241 18.957 27.4768C19.0162 27.3264 19.0459 27.1619 19.0459 26.9832C19.0459 26.6353 18.9158 26.3611 18.6556 26.1605C18.3954 25.9568 18.0052 25.8549 17.4848 25.8549H15.9534V28.2008H17.4848ZM15.9534 22.9073V25.2062H17.2181C17.4881 25.2062 17.722 25.178 17.9196 25.1216C18.1204 25.0651 18.2851 24.9868 18.4136 24.8865C18.5453 24.7862 18.6424 24.6655 18.705 24.5245C18.7676 24.3803 18.7989 24.2236 18.7989 24.0544C18.7989 23.6564 18.6737 23.3665 18.4234 23.1847C18.1731 22.9998 17.7845 22.9073 17.2576 22.9073H15.9534ZM17.2576 22.188C17.6923 22.188 18.0661 22.2288 18.379 22.3103C18.6951 22.3918 18.9537 22.5077 19.1546 22.6582C19.3587 22.8086 19.5086 22.9935 19.6041 23.2129C19.6996 23.4291 19.7474 23.6736 19.7474 23.9463C19.7474 24.1124 19.7194 24.2722 19.6634 24.4258C19.6107 24.5762 19.53 24.7173 19.4213 24.8489C19.3126 24.9805 19.1743 25.0996 19.0064 25.2062C18.8417 25.3096 18.6474 25.3942 18.4234 25.46C18.9438 25.5541 19.334 25.7311 19.5942 25.9913C19.8577 26.2483 19.9894 26.5867 19.9894 27.0067C19.9894 27.2919 19.9334 27.552 19.8215 27.7871C19.7128 28.0222 19.5514 28.2243 19.3373 28.3936C19.1266 28.5628 18.8664 28.6944 18.5568 28.7884C18.2472 28.8793 17.8949 28.9248 17.4997 28.9248H15V22.188H17.2576Z" fill="#B8BFC7"/>
<path d="M23.8147 26.7811C23.4096 26.7936 23.0638 26.8249 22.7773 26.8751C22.4941 26.9221 22.2619 26.9848 22.0808 27.0631C21.9029 27.1415 21.7728 27.2339 21.6905 27.3405C21.6115 27.4471 21.5719 27.5662 21.5719 27.6978C21.5719 27.8231 21.5933 27.9313 21.6362 28.0222C21.679 28.1131 21.7366 28.1883 21.8091 28.2478C21.8848 28.3042 21.9721 28.3465 22.0709 28.3747C22.173 28.3998 22.2816 28.4124 22.3969 28.4124C22.5517 28.4124 22.6933 28.3983 22.8218 28.37C22.9502 28.3387 23.0704 28.2948 23.1824 28.2384C23.2976 28.182 23.4063 28.1146 23.5084 28.0363C23.6138 27.9579 23.7159 27.8686 23.8147 27.7683V26.7811ZM20.9742 24.8348C21.2508 24.5809 21.5489 24.3913 21.8683 24.266C22.1878 24.1406 22.5418 24.0779 22.9304 24.0779C23.2104 24.0779 23.459 24.1218 23.6764 24.2095C23.8937 24.2973 24.0765 24.4195 24.2247 24.5762C24.3729 24.7329 24.4849 24.9225 24.5606 25.1451C24.6364 25.3676 24.6743 25.612 24.6743 25.8784V28.9248H24.284C24.1984 28.9248 24.1325 28.9122 24.0864 28.8872C24.0403 28.859 24.0041 28.8057 23.9777 28.7273L23.8789 28.276C23.7472 28.392 23.6187 28.4954 23.4936 28.5863C23.3685 28.6741 23.2367 28.7493 23.0984 28.812C22.9601 28.8715 22.8119 28.9169 22.6538 28.9483C22.499 28.9828 22.3261 29 22.1351 29C21.9408 29 21.758 28.9749 21.5868 28.9248C21.4155 28.8715 21.2656 28.7931 21.1372 28.6897C21.0121 28.5863 20.9116 28.4562 20.8359 28.2995C20.7634 28.1397 20.7272 27.9516 20.7272 27.7354C20.7272 27.5473 20.7815 27.3671 20.8902 27.1948C20.9989 27.0193 21.1751 26.8641 21.4188 26.7293C21.6625 26.5946 21.9803 26.4849 22.3722 26.4003C22.7641 26.3125 23.245 26.2624 23.8147 26.2498V25.8784C23.8147 25.5086 23.7307 25.2297 23.5628 25.0416C23.3948 24.8505 23.1494 24.7549 22.8267 24.7549C22.6093 24.7549 22.4266 24.7815 22.2784 24.8348C22.1334 24.8849 22.0067 24.9429 21.898 25.0087C21.7926 25.0714 21.7004 25.1294 21.6213 25.1827C21.5456 25.2328 21.4698 25.2579 21.3941 25.2579C21.3348 25.2579 21.2838 25.2438 21.2409 25.2156C21.1981 25.1842 21.1619 25.1466 21.1323 25.1028L20.9742 24.8348Z" fill="#B8BFC7"/>
<path d="M29.4964 25.0087C29.4701 25.0432 29.4437 25.0698 29.4174 25.0887C29.391 25.1075 29.3548 25.1169 29.3087 25.1169C29.2593 25.1169 29.205 25.0981 29.1457 25.0604C29.0864 25.0197 29.0123 24.9758 28.9234 24.9288C28.8378 24.8818 28.7307 24.8395 28.6023 24.8019C28.4771 24.7611 28.3223 24.7408 28.1379 24.7408C27.8909 24.7408 27.6736 24.7831 27.4858 24.8677C27.2981 24.9492 27.14 25.0683 27.0116 25.225C26.8864 25.3817 26.7909 25.5713 26.7251 25.7938C26.6625 26.0163 26.6312 26.2655 26.6312 26.5413C26.6312 26.8296 26.6658 27.0866 26.735 27.3123C26.8041 27.5348 26.9013 27.7229 27.0264 27.8764C27.1549 28.0269 27.308 28.1428 27.4858 28.2243C27.667 28.3027 27.8695 28.3418 28.0935 28.3418C28.3075 28.3418 28.4837 28.3183 28.622 28.2713C28.7604 28.2212 28.874 28.1663 28.9629 28.1068C29.0551 28.0472 29.1309 27.994 29.1901 27.9469C29.2527 27.8968 29.3136 27.8717 29.3729 27.8717C29.4454 27.8717 29.5014 27.8984 29.5409 27.9516L29.7879 28.2572C29.6792 28.3857 29.5557 28.4954 29.4174 28.5863C29.2791 28.6772 29.1292 28.754 28.9678 28.8167C28.8098 28.8762 28.6434 28.9201 28.4689 28.9483C28.2944 28.9765 28.1165 28.9906 27.9354 28.9906C27.6225 28.9906 27.331 28.9358 27.061 28.8261C26.7942 28.7164 26.5621 28.5581 26.3644 28.3512C26.1668 28.1413 26.0121 27.8843 25.9001 27.5803C25.7881 27.2762 25.7321 26.9299 25.7321 26.5413C25.7321 26.1872 25.7832 25.8596 25.8853 25.5588C25.9907 25.2579 26.1421 24.9993 26.3398 24.7831C26.5406 24.5637 26.786 24.3929 27.0758 24.2707C27.3689 24.1484 27.7048 24.0873 28.0836 24.0873C28.436 24.0873 28.7455 24.1422 29.0123 24.2518C29.2824 24.3584 29.5211 24.5104 29.7286 24.7079L29.4964 25.0087Z" fill="#B8BFC7"/>
<path d="M31.6161 22V26.0759H31.8433C31.9092 26.0759 31.9635 26.0681 32.0063 26.0524C32.0525 26.0336 32.1002 25.9975 32.1496 25.9443L33.7304 24.3318C33.7765 24.2785 33.8243 24.2377 33.8737 24.2095C33.9264 24.1782 33.9955 24.1625 34.0812 24.1625H34.8765L33.0339 26.0289C32.9449 26.1354 32.8494 26.2185 32.7473 26.278C32.8066 26.3156 32.8593 26.3595 32.9054 26.4097C32.9548 26.4567 33.0009 26.5115 33.0437 26.5742L35 28.9248H34.2145C34.1388 28.9248 34.0729 28.9138 34.0169 28.8919C33.9642 28.8668 33.9181 28.8229 33.8786 28.7602L32.2336 26.8093C32.1842 26.7435 32.1348 26.7011 32.0854 26.6823C32.0393 26.6604 31.9668 26.6494 31.868 26.6494H31.6161V28.9248H30.7318V22H31.6161Z" fill="#B8BFC7"/>
</svg>
