<svg width="460" height="99" viewBox="0 0 460 99" fill="none" xmlns="http://www.w3.org/2000/svg">
<path d="M90.7801 95.98C85.5701 94.55 81.4201 92.75 78.3101 90.56L84.3601 78.59C87.3801 80.61 91.0101 82.22 95.2601 83.44C99.5001 84.66 103.68 85.27 107.79 85.27C117.19 85.27 121.9 82.79 121.9 77.84C121.9 75.49 120.7 73.85 118.31 72.93C115.92 72.01 112.07 71.13 106.78 70.28C101.24 69.44 96.7201 68.48 93.2401 67.38C89.7501 66.29 86.7301 64.38 84.1701 61.65C81.6101 58.92 80.3301 55.12 80.3301 50.25C80.3301 43.87 83.0001 38.77 88.3301 34.95C93.6601 31.13 100.86 29.22 109.93 29.22C114.55 29.22 119.17 29.75 123.79 30.79C128.41 31.84 132.19 33.25 135.13 35.01L129.08 46.98C123.37 43.62 116.94 41.94 109.81 41.94C105.19 41.94 101.69 42.63 99.2901 44.02C96.9001 45.41 95.7001 47.23 95.7001 49.5C95.7001 52.02 96.9801 53.8 99.5401 54.85C102.1 55.9 106.07 56.89 111.44 57.81C116.81 58.65 121.22 59.62 124.67 60.71C128.11 61.8 131.07 63.65 133.55 66.25C136.03 68.85 137.27 72.55 137.27 77.33C137.27 83.63 134.54 88.67 129.08 92.45C123.62 96.23 116.19 98.12 106.78 98.12C101.31 98.12 95.9801 97.41 90.7801 95.98Z" fill="white"/>
<path d="M186.25 93.59C184.4 95.1 182.16 96.24 179.51 96.99C176.87 97.75 174.07 98.12 171.13 98.12C163.74 98.12 158.03 96.19 154 92.33C149.97 88.47 147.95 82.84 147.95 75.45V43.08H136.87V30.48H147.95V15.12H163.7V30.49H181.71V43.09H163.7V75.08C163.7 78.35 164.5 80.85 166.09 82.57C167.68 84.29 169.99 85.15 173.02 85.15C176.55 85.15 179.49 84.23 181.84 82.38L186.25 93.59Z" fill="white"/>
<path d="M255.16 29.98V97.24H240.17V88.55C237.57 91.74 234.35 94.14 230.53 95.73C226.71 97.32 222.49 98.12 217.87 98.12C211.32 98.12 205.46 96.69 200.3 93.84C195.14 90.99 191.1 86.96 188.21 81.75C185.31 76.54 183.86 70.5 183.86 63.61C183.86 56.73 185.31 50.7 188.21 45.53C191.11 40.37 195.14 36.36 200.3 33.5C205.46 30.65 211.32 29.22 217.87 29.22C222.23 29.22 226.25 29.98 229.9 31.49C233.55 33 236.72 35.23 239.41 38.17V29.98H255.16ZM233.99 78.85C237.77 74.99 239.66 69.91 239.66 63.61C239.66 57.31 237.77 52.23 233.99 48.37C230.21 44.51 225.42 42.58 219.63 42.58C213.84 42.58 209.07 44.51 205.33 48.37C201.59 52.23 199.72 57.31 199.72 63.61C199.72 69.91 201.59 74.99 205.33 78.85C209.07 82.71 213.83 84.64 219.63 84.64C225.43 84.65 230.21 82.71 233.99 78.85Z" fill="white"/>
<path d="M302.14 29.22V44.21C300.8 43.96 299.58 43.83 298.49 43.83C292.36 43.83 287.57 45.62 284.13 49.18C280.69 52.75 278.97 57.89 278.97 64.61V97.23H263.22V29.98H278.21V39.81C282.74 32.75 290.72 29.22 302.14 29.22Z" fill="white"/>
<path d="M308.69 16.19C306.76 14.39 305.79 12.14 305.79 9.45C305.79 6.76 306.75 4.52 308.69 2.71C310.62 0.91 313.01 0 315.87 0C318.72 0 321.12 0.86 323.05 2.58C324.98 4.3 325.95 6.46 325.95 9.07C325.95 11.84 325.01 14.17 323.12 16.06C321.23 17.95 318.82 18.89 315.88 18.89C313.01 18.89 310.62 17.99 308.69 16.19ZM307.93 29.98H323.68V97.24H307.93V29.98Z" fill="white"/>
<path d="M346.1 93.71C340.64 90.77 336.38 86.68 333.31 81.43C330.24 76.18 328.71 70.24 328.71 63.61C328.71 56.98 330.24 51.06 333.31 45.85C336.37 40.64 340.64 36.57 346.1 33.63C351.56 30.69 357.69 29.22 364.49 29.22C371.37 29.22 377.55 30.69 383.01 33.63C388.47 36.57 392.73 40.64 395.8 45.85C398.86 51.06 400.4 56.98 400.4 63.61C400.4 70.24 398.87 76.19 395.8 81.43C392.73 86.68 388.47 90.77 383.01 93.71C377.55 96.65 371.38 98.12 364.49 98.12C357.68 98.12 351.55 96.66 346.1 93.71ZM378.85 78.85C382.63 74.99 384.52 69.91 384.52 63.61C384.52 57.31 382.63 52.23 378.85 48.37C375.07 44.51 370.28 42.58 364.49 42.58C358.7 42.58 353.93 44.51 350.19 48.37C346.45 52.23 344.59 57.31 344.59 63.61C344.59 69.91 346.46 74.99 350.19 78.85C353.93 82.71 358.69 84.64 364.49 84.64C370.28 84.65 375.07 82.71 378.85 78.85Z" fill="white"/>
<path d="M412.73 95.98C407.52 94.55 403.37 92.75 400.26 90.56L406.31 78.59C409.33 80.61 412.96 82.22 417.21 83.44C421.45 84.66 425.63 85.27 429.74 85.27C439.14 85.27 443.85 82.79 443.85 77.84C443.85 75.49 442.65 73.85 440.26 72.93C437.87 72.01 434.02 71.13 428.73 70.28C423.19 69.44 418.67 68.48 415.19 67.38C411.7 66.29 408.68 64.38 406.12 61.65C403.56 58.92 402.28 55.12 402.28 50.25C402.28 43.87 404.95 38.77 410.28 34.95C415.61 31.13 422.81 29.22 431.88 29.22C436.5 29.22 441.12 29.75 445.74 30.79C450.36 31.84 454.14 33.25 457.08 35.01L451.03 46.98C445.32 43.62 438.89 41.94 431.76 41.94C427.14 41.94 423.64 42.63 421.24 44.02C418.85 45.41 417.65 47.23 417.65 49.5C417.65 52.02 418.93 53.8 421.49 54.85C424.05 55.9 428.02 56.89 433.39 57.81C438.76 58.65 443.17 59.62 446.62 60.71C450.06 61.8 453.02 63.65 455.5 66.25C457.98 68.85 459.22 72.55 459.22 77.33C459.22 83.63 456.49 88.67 451.03 92.45C445.57 96.23 438.14 98.12 428.73 98.12C423.27 98.12 417.93 97.41 412.73 95.98Z" fill="white"/>
<path d="M78.3 29.9801H62.82L59.52 40.5701C57.27 38.0901 54.65 35.9901 51.63 34.2801C46.44 31.3401 40.57 29.8701 34.02 29.8701C27.55 29.8701 21.72 31.3401 16.53 34.2801C11.34 37.2201 7.28 41.2901 4.37 46.5001C1.46 51.7001 0 57.6201 0 64.2501C0 70.8801 1.46 76.8301 4.37 82.0701C7.28 87.3201 11.34 91.4101 16.53 94.3501C21.72 97.2901 27.55 98.7601 34.02 98.7601C40.57 98.7601 46.44 97.2901 51.63 94.3501C54.76 92.5801 57.97 89.5501 59.81 86.5701L62.82 97.2801H78.3L67.98 63.6801L78.3 29.9801ZM47.68 79.4901C44.09 83.3501 39.53 85.2801 34.02 85.2801C28.51 85.2801 23.98 83.3501 20.42 79.4901C16.87 75.6301 15.09 70.5501 15.09 64.2501C15.09 57.9501 16.87 52.8701 20.42 49.0101C23.97 45.1501 28.51 43.2201 34.02 43.2201C39.53 43.2201 44.08 45.1501 47.68 49.0101C51.27 52.8701 53.07 57.9501 53.07 64.2501C53.07 70.5501 51.28 75.6301 47.68 79.4901Z" fill="white"/>
</svg>
